<svg width="89" height="27" viewBox="0 0 89 27" fill="none" xmlns="http://www.w3.org/2000/svg">
<path d="M27.436 13.636L25.012 22H23.788L21.844 15.268L19.828 22L18.616 22.012L16.276 13.636H17.44L19.264 20.728L21.28 13.636H22.504L24.424 20.704L26.26 13.636H27.436ZM31.895 15.304C32.391 15.304 32.839 15.412 33.239 15.628C33.639 15.836 33.951 16.152 34.175 16.576C34.407 17 34.523 17.516 34.523 18.124V22H33.443V18.28C33.443 17.624 33.279 17.124 32.951 16.78C32.623 16.428 32.175 16.252 31.607 16.252C31.031 16.252 30.571 16.432 30.227 16.792C29.891 17.152 29.723 17.676 29.723 18.364V22H28.631V13.12H29.723V16.36C29.939 16.024 30.235 15.764 30.611 15.58C30.995 15.396 31.423 15.304 31.895 15.304ZM35.8988 18.688C35.8988 18.016 36.0348 17.428 36.3068 16.924C36.5788 16.412 36.9508 16.016 37.4228 15.736C37.9028 15.456 38.4348 15.316 39.0188 15.316C39.5948 15.316 40.0948 15.44 40.5188 15.688C40.9428 15.936 41.2588 16.248 41.4668 16.624V15.424H42.5708V22H41.4668V20.776C41.2508 21.16 40.9268 21.48 40.4948 21.736C40.0708 21.984 39.5748 22.108 39.0068 22.108C38.4228 22.108 37.8948 21.964 37.4228 21.676C36.9508 21.388 36.5788 20.984 36.3068 20.464C36.0348 19.944 35.8988 19.352 35.8988 18.688ZM41.4668 18.7C41.4668 18.204 41.3668 17.772 41.1668 17.404C40.9668 17.036 40.6948 16.756 40.3508 16.564C40.0148 16.364 39.6428 16.264 39.2348 16.264C38.8268 16.264 38.4548 16.36 38.1188 16.552C37.7828 16.744 37.5148 17.024 37.3148 17.392C37.1148 17.76 37.0148 18.192 37.0148 18.688C37.0148 19.192 37.1148 19.632 37.3148 20.008C37.5148 20.376 37.7828 20.66 38.1188 20.86C38.4548 21.052 38.8268 21.148 39.2348 21.148C39.6428 21.148 40.0148 21.052 40.3508 20.86C40.6948 20.66 40.9668 20.376 41.1668 20.008C41.3668 19.632 41.4668 19.196 41.4668 18.7ZM45.7482 16.324V20.2C45.7482 20.52 45.8162 20.748 45.9522 20.884C46.0882 21.012 46.3242 21.076 46.6602 21.076H47.4642V22H46.4802C45.8722 22 45.4162 21.86 45.1122 21.58C44.8082 21.3 44.6562 20.84 44.6562 20.2V16.324H43.8042V15.424H44.6562V13.768H45.7482V15.424H47.4642V16.324H45.7482ZM51.1153 22.108C50.6113 22.108 50.1593 22.024 49.7593 21.856C49.3593 21.68 49.0433 21.44 48.8113 21.136C48.5793 20.824 48.4513 20.468 48.4273 20.068H49.5553C49.5873 20.396 49.7393 20.664 50.0113 20.872C50.2913 21.08 50.6553 21.184 51.1033 21.184C51.5193 21.184 51.8473 21.092 52.0873 20.908C52.3273 20.724 52.4473 20.492 52.4473 20.212C52.4473 19.924 52.3193 19.712 52.0633 19.576C51.8073 19.432 51.4113 19.292 50.8753 19.156C50.3873 19.028 49.9873 18.9 49.6753 18.772C49.3713 18.636 49.1073 18.44 48.8833 18.184C48.6673 17.92 48.5593 17.576 48.5593 17.152C48.5593 16.816 48.6593 16.508 48.8593 16.228C49.0593 15.948 49.3433 15.728 49.7113 15.568C50.0793 15.4 50.4993 15.316 50.9713 15.316C51.6993 15.316 52.2873 15.5 52.7353 15.868C53.1833 16.236 53.4233 16.74 53.4553 17.38H52.3633C52.3393 17.036 52.1993 16.76 51.9433 16.552C51.6953 16.344 51.3593 16.24 50.9353 16.24C50.5433 16.24 50.2313 16.324 49.9993 16.492C49.7673 16.66 49.6513 16.88 49.6513 17.152C49.6513 17.368 49.7193 17.548 49.8553 17.692C49.9993 17.828 50.1753 17.94 50.3833 18.028C50.5993 18.108 50.8953 18.2 51.2713 18.304C51.7433 18.432 52.1273 18.56 52.4233 18.688C52.7193 18.808 52.9713 18.992 53.1793 19.24C53.3953 19.488 53.5073 19.812 53.5153 20.212C53.5153 20.572 53.4153 20.896 53.2153 21.184C53.0153 21.472 52.7313 21.7 52.3633 21.868C52.0033 22.028 51.5873 22.108 51.1153 22.108ZM60.2048 13.636V14.524H57.9248V22H56.8328V14.524H54.5408V13.636H60.2048ZM62.641 16.492C62.833 16.116 63.105 15.824 63.457 15.616C63.817 15.408 64.253 15.304 64.765 15.304V16.432H64.477C63.253 16.432 62.641 17.096 62.641 18.424V22H61.549V15.424H62.641V16.492ZM72.0256 18.46C72.0256 18.668 72.0136 18.888 71.9896 19.12H66.7336C66.7736 19.768 66.9936 20.276 67.3936 20.644C67.8016 21.004 68.2936 21.184 68.8696 21.184C69.3416 21.184 69.7336 21.076 70.0456 20.86C70.3656 20.636 70.5896 20.34 70.7176 19.972H71.8936C71.7176 20.604 71.3656 21.12 70.8376 21.52C70.3096 21.912 69.6536 22.108 68.8696 22.108C68.2456 22.108 67.6856 21.968 67.1896 21.688C66.7016 21.408 66.3176 21.012 66.0376 20.5C65.7576 19.98 65.6176 19.38 65.6176 18.7C65.6176 18.02 65.7536 17.424 66.0256 16.912C66.2976 16.4 66.6776 16.008 67.1656 15.736C67.6616 15.456 68.2296 15.316 68.8696 15.316C69.4936 15.316 70.0456 15.452 70.5256 15.724C71.0056 15.996 71.3736 16.372 71.6296 16.852C71.8936 17.324 72.0256 17.86 72.0256 18.46ZM70.8976 18.232C70.8976 17.816 70.8056 17.46 70.6216 17.164C70.4376 16.86 70.1856 16.632 69.8656 16.48C69.5536 16.32 69.2056 16.24 68.8216 16.24C68.2696 16.24 67.7976 16.416 67.4056 16.768C67.0216 17.12 66.8016 17.608 66.7456 18.232H70.8976ZM76.671 15.304C77.471 15.304 78.119 15.548 78.615 16.036C79.111 16.516 79.359 17.212 79.359 18.124V22H78.279V18.28C78.279 17.624 78.115 17.124 77.787 16.78C77.459 16.428 77.011 16.252 76.443 16.252C75.867 16.252 75.407 16.432 75.063 16.792C74.727 17.152 74.559 17.676 74.559 18.364V22H73.467V15.424H74.559V16.36C74.775 16.024 75.067 15.764 75.435 15.58C75.811 15.396 76.223 15.304 76.671 15.304ZM80.7348 18.688C80.7348 18.016 80.8708 17.428 81.1428 16.924C81.4148 16.412 81.7868 16.016 82.2588 15.736C82.7388 15.456 83.2748 15.316 83.8668 15.316C84.3788 15.316 84.8548 15.436 85.2948 15.676C85.7348 15.908 86.0708 16.216 86.3028 16.6V13.12H87.4068V22H86.3028V20.764C86.0868 21.156 85.7668 21.48 85.3428 21.736C84.9188 21.984 84.4228 22.108 83.8548 22.108C83.2708 22.108 82.7388 21.964 82.2588 21.676C81.7868 21.388 81.4148 20.984 81.1428 20.464C80.8708 19.944 80.7348 19.352 80.7348 18.688ZM86.3028 18.7C86.3028 18.204 86.2028 17.772 86.0028 17.404C85.8028 17.036 85.5308 16.756 85.1868 16.564C84.8508 16.364 84.4788 16.264 84.0708 16.264C83.6628 16.264 83.2908 16.36 82.9548 16.552C82.6188 16.744 82.3508 17.024 82.1508 17.392C81.9508 17.76 81.8508 18.192 81.8508 18.688C81.8508 19.192 81.9508 19.632 82.1508 20.008C82.3508 20.376 82.6188 20.66 82.9548 20.86C83.2908 21.052 83.6628 21.148 84.0708 21.148C84.4788 21.148 84.8508 21.052 85.1868 20.86C85.5308 20.66 85.8028 20.376 86.0028 20.008C86.2028 19.632 86.3028 19.196 86.3028 18.7Z" fill="white"/>
<rect x="12" y="11" width="2" height="11" fill="white"/>
<rect x="85" width="2" height="11" fill="white"/>
<rect x="87" y="10" width="1" height="75" transform="rotate(90 87 10)" fill="white"/>
<rect x="14" y="22" width="1" height="14" transform="rotate(90 14 22)" fill="white"/>
<rect x="12" y="22" width="2" height="1" fill="#FF0000"/>
<rect x="85" y="10" width="2" height="1" fill="#FF0000"/>
<rect x="12" y="10" width="2" height="1" fill="#FF0000"/>
</svg>
