<svg width="103" height="18" viewBox="0 0 103 18" fill="none" xmlns="http://www.w3.org/2000/svg">
<path d="M11.436 4.636L9.012 13H7.788L5.844 6.268L3.828 13L2.616 13.012L0.276 4.636H1.44L3.264 11.728L5.28 4.636H6.504L8.424 11.704L10.26 4.636H11.436ZM15.895 6.304C16.391 6.304 16.839 6.412 17.239 6.628C17.639 6.836 17.951 7.152 18.175 7.576C18.407 8 18.523 8.516 18.523 9.124V13H17.443V9.28C17.443 8.624 17.279 8.124 16.951 7.78C16.623 7.428 16.175 7.252 15.607 7.252C15.031 7.252 14.571 7.432 14.227 7.792C13.891 8.152 13.723 8.676 13.723 9.364V13H12.631V4.12H13.723V7.36C13.939 7.024 14.235 6.764 14.611 6.58C14.995 6.396 15.423 6.304 15.895 6.304ZM19.8988 9.688C19.8988 9.016 20.0348 8.428 20.3068 7.924C20.5788 7.412 20.9508 7.016 21.4228 6.736C21.9028 6.456 22.4348 6.316 23.0188 6.316C23.5948 6.316 24.0948 6.44 24.5188 6.688C24.9428 6.936 25.2588 7.248 25.4668 7.624V6.424H26.5708V13H25.4668V11.776C25.2508 12.16 24.9268 12.48 24.4948 12.736C24.0708 12.984 23.5748 13.108 23.0068 13.108C22.4228 13.108 21.8948 12.964 21.4228 12.676C20.9508 12.388 20.5788 11.984 20.3068 11.464C20.0348 10.944 19.8988 10.352 19.8988 9.688ZM25.4668 9.7C25.4668 9.204 25.3668 8.772 25.1668 8.404C24.9668 8.036 24.6948 7.756 24.3508 7.564C24.0148 7.364 23.6428 7.264 23.2348 7.264C22.8268 7.264 22.4548 7.36 22.1188 7.552C21.7828 7.744 21.5148 8.024 21.3148 8.392C21.1148 8.76 21.0148 9.192 21.0148 9.688C21.0148 10.192 21.1148 10.632 21.3148 11.008C21.5148 11.376 21.7828 11.66 22.1188 11.86C22.4548 12.052 22.8268 12.148 23.2348 12.148C23.6428 12.148 24.0148 12.052 24.3508 11.86C24.6948 11.66 24.9668 11.376 25.1668 11.008C25.3668 10.632 25.4668 10.196 25.4668 9.7ZM29.7482 7.324V11.2C29.7482 11.52 29.8162 11.748 29.9522 11.884C30.0882 12.012 30.3242 12.076 30.6602 12.076H31.4642V13H30.4802C29.8722 13 29.4162 12.86 29.1122 12.58C28.8082 12.3 28.6562 11.84 28.6562 11.2V7.324H27.8042V6.424H28.6562V4.768H29.7482V6.424H31.4642V7.324H29.7482ZM35.1153 13.108C34.6113 13.108 34.1593 13.024 33.7593 12.856C33.3593 12.68 33.0433 12.44 32.8113 12.136C32.5793 11.824 32.4513 11.468 32.4273 11.068H33.5553C33.5873 11.396 33.7393 11.664 34.0113 11.872C34.2913 12.08 34.6553 12.184 35.1033 12.184C35.5193 12.184 35.8473 12.092 36.0873 11.908C36.3273 11.724 36.4473 11.492 36.4473 11.212C36.4473 10.924 36.3193 10.712 36.0633 10.576C35.8073 10.432 35.4113 10.292 34.8753 10.156C34.3873 10.028 33.9873 9.9 33.6753 9.772C33.3713 9.636 33.1073 9.44 32.8833 9.184C32.6673 8.92 32.5593 8.576 32.5593 8.152C32.5593 7.816 32.6593 7.508 32.8593 7.228C33.0593 6.948 33.3433 6.728 33.7113 6.568C34.0793 6.4 34.4993 6.316 34.9713 6.316C35.6993 6.316 36.2873 6.5 36.7353 6.868C37.1833 7.236 37.4233 7.74 37.4553 8.38H36.3633C36.3393 8.036 36.1993 7.76 35.9433 7.552C35.6953 7.344 35.3593 7.24 34.9353 7.24C34.5433 7.24 34.2313 7.324 33.9993 7.492C33.7673 7.66 33.6513 7.88 33.6513 8.152C33.6513 8.368 33.7193 8.548 33.8553 8.692C33.9993 8.828 34.1753 8.94 34.3833 9.028C34.5993 9.108 34.8953 9.2 35.2713 9.304C35.7433 9.432 36.1273 9.56 36.4233 9.688C36.7193 9.808 36.9713 9.992 37.1793 10.24C37.3953 10.488 37.5073 10.812 37.5153 11.212C37.5153 11.572 37.4153 11.896 37.2153 12.184C37.0153 12.472 36.7313 12.7 36.3633 12.868C36.0033 13.028 35.5873 13.108 35.1153 13.108ZM44.2048 4.636V5.524H41.9248V13H40.8328V5.524H38.5408V4.636H44.2048ZM46.641 7.492C46.833 7.116 47.105 6.824 47.457 6.616C47.817 6.408 48.253 6.304 48.765 6.304V7.432H48.477C47.253 7.432 46.641 8.096 46.641 9.424V13H45.549V6.424H46.641V7.492ZM56.0256 9.46C56.0256 9.668 56.0136 9.888 55.9896 10.12H50.7336C50.7736 10.768 50.9936 11.276 51.3936 11.644C51.8016 12.004 52.2936 12.184 52.8696 12.184C53.3416 12.184 53.7336 12.076 54.0456 11.86C54.3656 11.636 54.5896 11.34 54.7176 10.972H55.8936C55.7176 11.604 55.3656 12.12 54.8376 12.52C54.3096 12.912 53.6536 13.108 52.8696 13.108C52.2456 13.108 51.6856 12.968 51.1896 12.688C50.7016 12.408 50.3176 12.012 50.0376 11.5C49.7576 10.98 49.6176 10.38 49.6176 9.7C49.6176 9.02 49.7536 8.424 50.0256 7.912C50.2976 7.4 50.6776 7.008 51.1656 6.736C51.6616 6.456 52.2296 6.316 52.8696 6.316C53.4936 6.316 54.0456 6.452 54.5256 6.724C55.0056 6.996 55.3736 7.372 55.6296 7.852C55.8936 8.324 56.0256 8.86 56.0256 9.46ZM54.8976 9.232C54.8976 8.816 54.8056 8.46 54.6216 8.164C54.4376 7.86 54.1856 7.632 53.8656 7.48C53.5536 7.32 53.2056 7.24 52.8216 7.24C52.2696 7.24 51.7976 7.416 51.4056 7.768C51.0216 8.12 50.8016 8.608 50.7456 9.232H54.8976ZM60.671 6.304C61.471 6.304 62.119 6.548 62.615 7.036C63.111 7.516 63.359 8.212 63.359 9.124V13H62.279V9.28C62.279 8.624 62.115 8.124 61.787 7.78C61.459 7.428 61.011 7.252 60.443 7.252C59.867 7.252 59.407 7.432 59.063 7.792C58.727 8.152 58.559 8.676 58.559 9.364V13H57.467V6.424H58.559V7.36C58.775 7.024 59.067 6.764 59.435 6.58C59.811 6.396 60.223 6.304 60.671 6.304ZM64.7348 9.688C64.7348 9.016 64.8708 8.428 65.1428 7.924C65.4148 7.412 65.7868 7.016 66.2588 6.736C66.7388 6.456 67.2748 6.316 67.8668 6.316C68.3788 6.316 68.8548 6.436 69.2948 6.676C69.7348 6.908 70.0708 7.216 70.3028 7.6V4.12H71.4068V13H70.3028V11.764C70.0868 12.156 69.7668 12.48 69.3428 12.736C68.9188 12.984 68.4228 13.108 67.8548 13.108C67.2708 13.108 66.7388 12.964 66.2588 12.676C65.7868 12.388 65.4148 11.984 65.1428 11.464C64.8708 10.944 64.7348 10.352 64.7348 9.688ZM70.3028 9.7C70.3028 9.204 70.2028 8.772 70.0028 8.404C69.8028 8.036 69.5308 7.756 69.1868 7.564C68.8508 7.364 68.4788 7.264 68.0708 7.264C67.6628 7.264 67.2908 7.36 66.9548 7.552C66.6188 7.744 66.3508 8.024 66.1508 8.392C65.9508 8.76 65.8508 9.192 65.8508 9.688C65.8508 10.192 65.9508 10.632 66.1508 11.008C66.3508 11.376 66.6188 11.66 66.9548 11.86C67.2908 12.052 67.6628 12.148 68.0708 12.148C68.4788 12.148 68.8508 12.052 69.1868 11.86C69.5308 11.66 69.8028 11.376 70.0028 11.008C70.2028 10.632 70.3028 10.196 70.3028 9.7ZM73.6001 13.072C73.3921 13.072 73.2161 13 73.0721 12.856C72.9281 12.712 72.8561 12.536 72.8561 12.328C72.8561 12.12 72.9281 11.944 73.0721 11.8C73.2161 11.656 73.3921 11.584 73.6001 11.584C73.8001 11.584 73.9681 11.656 74.1041 11.8C74.2481 11.944 74.3201 12.12 74.3201 12.328C74.3201 12.536 74.2481 12.712 74.1041 12.856C73.9681 13 73.8001 13.072 73.6001 13.072ZM75.3637 9.7C75.3637 9.02 75.4997 8.428 75.7717 7.924C76.0437 7.412 76.4197 7.016 76.8997 6.736C77.3877 6.456 77.9437 6.316 78.5677 6.316C79.3757 6.316 80.0397 6.512 80.5597 6.904C81.0877 7.296 81.4357 7.84 81.6037 8.536H80.4277C80.3157 8.136 80.0957 7.82 79.7677 7.588C79.4477 7.356 79.0477 7.24 78.5677 7.24C77.9437 7.24 77.4397 7.456 77.0557 7.888C76.6717 8.312 76.4797 8.916 76.4797 9.7C76.4797 10.492 76.6717 11.104 77.0557 11.536C77.4397 11.968 77.9437 12.184 78.5677 12.184C79.0477 12.184 79.4477 12.072 79.7677 11.848C80.0877 11.624 80.3077 11.304 80.4277 10.888H81.6037C81.4277 11.56 81.0757 12.1 80.5477 12.508C80.0197 12.908 79.3597 13.108 78.5677 13.108C77.9437 13.108 77.3877 12.968 76.8997 12.688C76.4197 12.408 76.0437 12.012 75.7717 11.5C75.4997 10.988 75.3637 10.388 75.3637 9.7ZM85.9287 13.108C85.3127 13.108 84.7527 12.968 84.2487 12.688C83.7527 12.408 83.3607 12.012 83.0727 11.5C82.7927 10.98 82.6527 10.38 82.6527 9.7C82.6527 9.028 82.7967 8.436 83.0847 7.924C83.3807 7.404 83.7807 7.008 84.2847 6.736C84.7887 6.456 85.3527 6.316 85.9767 6.316C86.6007 6.316 87.1647 6.456 87.6687 6.736C88.1727 7.008 88.5687 7.4 88.8567 7.912C89.1527 8.424 89.3007 9.02 89.3007 9.7C89.3007 10.38 89.1487 10.98 88.8447 11.5C88.5487 12.012 88.1447 12.408 87.6327 12.688C87.1207 12.968 86.5527 13.108 85.9287 13.108ZM85.9287 12.148C86.3207 12.148 86.6887 12.056 87.0327 11.872C87.3767 11.688 87.6527 11.412 87.8607 11.044C88.0767 10.676 88.1847 10.228 88.1847 9.7C88.1847 9.172 88.0807 8.724 87.8727 8.356C87.6647 7.988 87.3927 7.716 87.0567 7.54C86.7207 7.356 86.3567 7.264 85.9647 7.264C85.5647 7.264 85.1967 7.356 84.8607 7.54C84.5327 7.716 84.2687 7.988 84.0687 8.356C83.8687 8.724 83.7687 9.172 83.7687 9.7C83.7687 10.236 83.8647 10.688 84.0567 11.056C84.2567 11.424 84.5207 11.7 84.8487 11.884C85.1767 12.06 85.5367 12.148 85.9287 12.148ZM98.6445 6.304C99.1565 6.304 99.6125 6.412 100.013 6.628C100.413 6.836 100.729 7.152 100.961 7.576C101.193 8 101.309 8.516 101.309 9.124V13H100.229V9.28C100.229 8.624 100.065 8.124 99.7365 7.78C99.4165 7.428 98.9805 7.252 98.4285 7.252C97.8605 7.252 97.4085 7.436 97.0725 7.804C96.7365 8.164 96.5685 8.688 96.5685 9.376V13H95.4885V9.28C95.4885 8.624 95.3245 8.124 94.9965 7.78C94.6765 7.428 94.2405 7.252 93.6885 7.252C93.1205 7.252 92.6685 7.436 92.3325 7.804C91.9965 8.164 91.8285 8.688 91.8285 9.376V13H90.7365V6.424H91.8285V7.372C92.0445 7.028 92.3325 6.764 92.6925 6.58C93.0605 6.396 93.4645 6.304 93.9045 6.304C94.4565 6.304 94.9445 6.428 95.3685 6.676C95.7925 6.924 96.1085 7.288 96.3165 7.768C96.5005 7.304 96.8045 6.944 97.2285 6.688C97.6525 6.432 98.1245 6.304 98.6445 6.304Z" fill="white"/>
</svg>
